# xmcd CD database file
#
# Track frame offsets:
#	150
#	17597
#	31680
#
# Disc length: 654 seconds
#
# Revision: 0
# Processed by: cddbd v1.5.1PL0 Copyright (c) Steve Scherf et al.
# Submitted via: CDex 1.51
#
DISCID=13028c03
DTITLE=内田有紀 - TENCAを取ろう！-内田の野望-
DYEAR=1900
DGENRE=JPop
TTITLE0=TENCAを取ろう！-内田の野望-
TTITLE1=ヘイ・ポーラ
TTITLE2=TENCAを取ろう！-内田の野望- オリジナル・カラオケ
EXTD=
EXTT0=
EXTT1=
EXTT2=
PLAYORDER=
